<?xml version="1.0" encoding="UTF-8"?>
<!DOCTYPE svg PUBLIC "-//W3C//DTD SVG 1.1//EN" "http://www.w3.org/Graphics/SVG/1.1/DTD/svg11.dtd">
<!-- Creator: CorelDRAW 2019 (64-Bit) -->
<svg xmlns="http://www.w3.org/2000/svg" xml:space="preserve" width="252px" height="100px" version="1.1" style="shape-rendering:geometricPrecision; text-rendering:geometricPrecision; image-rendering:optimizeQuality; fill-rule:evenodd; clip-rule:evenodd"
viewBox="0 0 433 239.98"
 xmlns:xlink="http://www.w3.org/1999/xlink"
 xmlns:xodm="http://www.corel.com/coreldraw/odm/2003">
 <defs>
  <style type="text/css">
   <![CDATA[
    .fil3 {fill:#FEFEFE}
    .fil2 {fill:#00001B}
    .fil1 {fill:#00AFF1}
    .fil0 {fill:#0C3B7C}
   ]]>
  </style>
 </defs>
 <g id="Layer_x0020_1">
  <metadata id="CorelCorpID_0Corel-Layer"/>
  <g id="_2150395738672">
   <path class="fil0" d="M257.76 220.66c-10.43,6.89 -23.68,1.53 -26.61,-10.72 -1.44,-6.03 -1.1,-11.94 1.9,-17.5 3.42,-6.34 9.81,-8.99 16.37,-8.56 3.38,0.23 6.49,1.17 9.1,3.43 0.38,0.33 0.53,0.31 0.79,-0.15 0.98,-1.77 2.6,-2.41 4.55,-2.4 1.41,0 2.83,0.07 4.23,-0.03 1.02,-0.07 1.16,0.34 1.16,1.23 -0.05,12.01 -0.06,24.03 -0.1,36.05 0,0.69 -0.04,1.37 -0.13,2.05 -1.1,7.94 -5.82,12.72 -13.31,14.85 -7.3,2.07 -14.35,1.02 -21.13,-2.26 -0.71,-0.34 -0.94,-0.65 -0.58,-1.45 0.71,-1.57 1.26,-3.22 1.95,-4.81 0.94,-2.15 2.21,-2.76 4.46,-2.08 2.87,0.87 5.74,1.61 8.77,1.43 0.97,-0.06 1.92,-0.2 2.86,-0.45 4.04,-1.07 6.22,-4.3 5.72,-8.63zm0.26 -16.91c0.05,1.5 -0.1,2.98 -0.51,4.43 -0.95,3.41 -2.98,5.15 -6.48,5.54 -3.18,0.36 -6.14,-1.17 -7.61,-4.05 -1.75,-3.44 -1.92,-7.05 -0.75,-10.68 1.23,-3.8 3.94,-5.36 8.4,-5.04 3.6,0.26 5.95,2.45 6.67,6.2 0.23,1.19 0.32,2.39 0.28,3.6zm-247.39 -17.42c0,-1.29 0,-2.58 0,-3.87 0.01,-2.63 1.13,-3.77 3.73,-3.79 1.45,-0.01 2.9,-0.01 4.35,0 3.95,0.01 6.28,2.24 6.43,6.12 0.15,3.93 -2.19,6.72 -5.97,6.91 -2.62,0.14 -5.24,0.01 -7.86,0.05 -0.66,0.01 -0.69,-0.33 -0.69,-0.83 0.02,-1.53 0.01,-3.06 0.01,-4.59zm0 22.46c0,-1.69 -0.02,-3.38 0,-5.07 0.03,-2.32 1.2,-3.47 3.52,-3.47 2.01,-0.01 4.03,-0.02 6.04,0 4.11,0.05 6.89,2.98 6.9,7.23 0.01,4.55 -2.61,7.46 -6.84,7.52 -2.9,0.05 -5.79,-0.01 -8.69,0.03 -0.73,0.01 -0.98,-0.16 -0.95,-0.92 0.06,-1.77 0.02,-3.55 0.02,-5.32zm60.88 -4.19c-0.11,4.03 -1.23,7.58 -4.98,9.7 -5.89,3.31 -12.93,-0.33 -14.02,-7.18 -0.35,-2.18 -0.29,-4.34 0.33,-6.46 1.32,-4.5 4.82,-7.03 9.53,-6.95 4.1,0.08 7.61,3.06 8.72,7.41 0.3,1.14 0.41,2.3 0.42,3.48zm44.41 0c0.01,1.26 -0.17,2.49 -0.5,3.7 -1.18,4.39 -4.61,7.12 -9.01,7.19 -4.33,0.08 -7.91,-2.6 -9.15,-6.98 -1.11,-3.9 -0.84,-7.7 1.57,-11.08 2.19,-3.08 5.36,-4.19 9.02,-3.6 3.99,0.64 6.37,3.2 7.54,6.96 0.38,1.23 0.55,2.51 0.53,3.81zm-86.01 -9.13c3.67,1.67 6.13,4.24 7.29,7.89 2.32,7.3 0,17.02 -11.2,20.11 -2.03,0.55 -4.11,0.84 -6.21,0.84 -6.21,0.02 -12.42,0 -18.63,0.03 -0.88,0.01 -1.16,-0.2 -1.16,-1.13 0.03,-15.93 0.02,-31.86 0.03,-47.79 0,-3.11 2.35,-5.73 5.36,-5.75 5.36,-0.04 10.73,-0.27 16.08,0.11 4.34,0.3 8.28,1.77 11.23,5.15 4.76,5.48 4.13,14.41 -1.29,19.22 -0.45,0.4 -0.9,0.79 -1.5,1.32zm52.72 8.71c0.35,11.71 -8.25,20.92 -20.57,20.95 -12.19,0.03 -20.91,-8.54 -20.93,-20.5 -0.02,-12.04 8.7,-20.6 20.96,-20.6 11.71,0.01 20.53,8.66 20.54,20.15zm2.92 0.34c0,-11.99 8.68,-20.49 20.91,-20.49 12,0 20.6,8.71 20.59,20.85 -0.01,11.85 -8.87,20.26 -21.31,20.26 -11.58,-0.01 -20.19,-8.81 -20.19,-20.62zm82.15 19.94c-3.44,0 -6.83,0.05 -10.21,-0.02 -2.44,-0.05 -3.98,-1.52 -5.07,-3.57 -1.53,-2.87 -3.05,-5.75 -4.58,-8.63 -0.45,-0.86 -0.9,-1.71 -1.36,-2.56 -0.69,-1.31 -2.07,-1.92 -3.51,-1.66 -0.74,0.14 -0.46,0.67 -0.46,1.04 -0.02,4.64 -0.07,9.28 0.02,13.92 0.03,1.31 -0.39,1.57 -1.6,1.54 -2.98,-0.09 -5.97,-0.06 -8.95,-0.01 -0.76,0.01 -0.95,-0.23 -0.95,-0.96 0.02,-17.67 0.03,-35.33 0,-53 0,-0.81 0.24,-1.05 1.03,-1.01 1.93,0.09 3.87,-0.11 5.8,0.11 3.27,0.37 4.63,1.87 4.63,5.17 0.01,7.3 0.04,14.6 -0.03,21.9 -0.01,1.21 0.34,1.44 1.47,1.43 1.63,-0.03 2.79,-0.49 3.69,-1.97 2.15,-3.54 4.49,-6.97 6.71,-10.48 0.42,-0.65 0.82,-0.93 1.62,-0.92 3.87,0.05 7.75,0.02 11.59,0.02 0.18,0.24 0.05,0.4 -0.06,0.57 -3.54,5.24 -7.06,10.49 -10.61,15.73 -0.45,0.66 -1.38,1.23 -1.41,1.88 -0.03,0.62 0.91,1.23 1.27,1.93 3.37,6.55 7.09,12.9 10.95,19.18 0.03,0.06 0.01,0.15 0.02,0.37zm3.44 -19.86c0,-6.21 0.02,-12.41 -0.02,-18.62 -0.01,-0.95 0.23,-1.26 1.2,-1.2 1.88,0.13 3.78,-0.11 5.67,0.17 2.65,0.39 4.18,1.94 4.47,4.59 0.05,0.48 0.05,0.97 0.05,1.45 0,10.73 -0.02,21.45 0.03,32.17 0.01,1.15 -0.34,1.38 -1.4,1.35 -2.86,-0.07 -5.73,-0.09 -8.58,0.01 -1.18,0.04 -1.36,-0.37 -1.35,-1.42 0.04,-6.16 0.02,-12.33 0.02,-18.5 -0.03,0 -0.06,0 -0.09,0zm11.86 -30.06c-0.02,3.67 -2.94,6.59 -6.6,6.59 -3.72,-0.01 -6.58,-2.95 -6.55,-6.75 0.02,-3.61 2.93,-6.52 6.52,-6.52 3.73,-0.01 6.64,2.92 6.63,6.68zm17.23 14.64c2.21,-2.35 4.81,-4.04 7.96,-4.76 3.42,-0.78 6.82,-0.71 10.13,0.45 4.46,1.56 6.77,4.96 7.71,9.44 0.34,1.62 0.49,3.26 0.49,4.92 0,8.03 -0.01,16.06 0.02,24.08 0.01,0.93 -0.19,1.26 -1.17,1.2 -1.53,-0.09 -3.07,-0.01 -4.6,-0.02 -3.76,-0.04 -5.64,-1.9 -5.65,-5.69 -0.03,-5.85 -0.01,-11.69 -0.01,-17.54 0,-1.26 -0.1,-2.51 -0.46,-3.71 -0.51,-1.71 -1.62,-2.7 -3.45,-2.92 -4.83,-0.6 -8.94,2.36 -10.32,7.51 -0.34,1.29 -0.51,2.6 -0.5,3.94 0.01,5.77 -0.02,11.54 0.03,17.31 0,0.91 -0.23,1.14 -1.13,1.12 -3.07,-0.06 -6.13,-0.05 -9.2,0 -0.81,0.01 -1.09,-0.15 -1.09,-1.04 0.03,-12.54 0.03,-25.08 0,-37.63 0,-0.85 0.23,-1.11 1.07,-1.06 1.77,0.11 3.55,-0.11 5.32,0.12 2.38,0.31 4.07,1.45 4.61,3.93 0.02,0.1 0.13,0.19 0.24,0.35z"/>
   <path class="fil1" d="M384.09 189.82c0.64,-0.69 1.12,-1.28 1.68,-1.79 4.19,-3.87 9.06,-4.86 14.46,-3.25 2.62,0.79 4.55,2.52 5.9,4.9 0.68,1.21 0.7,1.2 1.54,0.18 4.2,-5.09 10.95,-7.1 17.24,-5.06 4.47,1.45 6.65,4.84 7.56,9.22 0.36,1.7 0.51,3.43 0.51,5.17 -0.01,8.02 -0.02,16.05 0.02,24.07 0.01,1.02 -0.26,1.31 -1.26,1.25 -1.49,-0.09 -2.99,0.01 -4.48,-0.03 -3.34,-0.08 -5.12,-1.74 -5.16,-5.08 -0.09,-6.13 -0.04,-12.26 -0.06,-18.39 0,-0.88 -0.07,-1.77 -0.18,-2.64 -0.44,-3.43 -2.5,-4.84 -5.87,-4.02 -3.51,0.85 -5.35,3.41 -6.47,6.59 -0.68,1.9 -1.01,3.88 -1,5.93 0.03,5.52 -0.01,11.05 0.03,16.57 0.01,0.85 -0.23,1.08 -1.07,1.07 -2.95,-0.05 -5.89,-0.06 -8.84,0 -0.86,0.01 -1.06,-0.26 -1.06,-1.09 0.04,-7.38 0.03,-14.76 0.01,-22.14 0,-0.92 -0.07,-1.86 -0.22,-2.77 -0.6,-3.68 -3.61,-5.33 -7.09,-3.9 -2.14,0.88 -3.47,2.59 -4.44,4.58 -1.19,2.43 -1.74,5.02 -1.75,7.71 -0.02,5.49 -0.02,10.97 0.01,16.46 0.01,0.87 -0.17,1.17 -1.11,1.15 -2.9,-0.07 -5.8,-0.04 -8.71,-0.01 -0.71,0.01 -1.07,-0.09 -1.07,-0.96 0.03,-12.55 0.03,-25.09 0.01,-37.63 0,-0.73 0.19,-1 0.95,-0.96 1.08,0.05 2.17,0.01 3.26,0.01 4.1,0.01 5.21,0.78 6.66,4.86zm-45.14 14.76c0.09,-4.03 1.25,-7.57 4.98,-9.69 5.82,-3.32 12.8,0.23 13.99,7.07 0.66,3.84 0.2,7.52 -2.49,10.54 -2.51,2.82 -5.8,3.57 -9.37,2.65 -3.71,-0.95 -5.77,-3.62 -6.73,-7.21 -0.3,-1.09 -0.38,-2.22 -0.38,-3.36zm-58.88 20.39c-3.65,-0.07 -6.53,-3.07 -6.45,-6.73 0.08,-3.75 3.06,-6.57 6.81,-6.48 3.67,0.1 6.48,3.09 6.39,6.78 -0.09,3.67 -3.07,6.5 -6.75,6.43zm41.07 -26.42c-0.56,0 -1.13,0 -1.69,0 -2.63,0 -3.59,-0.63 -4.59,-3.05 -0.36,-0.88 -1.09,-1.25 -1.9,-1.54 -3.51,-1.27 -8.08,0.01 -10.66,2.97 -4.25,4.87 -3.46,13.3 1.71,16.74 3.91,2.61 8.09,2.63 12.31,0.69 1.93,-0.88 3.69,-2.02 5.12,-3.58 0.66,-0.71 0.92,-0.52 1.34,0.21 1.16,2.02 2.36,4.03 3.61,6 0.46,0.71 0.39,1.19 -0.2,1.76 -5.13,5 -11.3,7.13 -18.39,6.56 -5.05,-0.4 -9.55,-2.2 -13.21,-5.8 -4.3,-4.24 -6.12,-9.48 -5.95,-15.43 0.38,-13.3 11.54,-21.08 23.77,-19.89 2.96,0.29 5.79,1 8.34,2.59 2.67,1.65 4.11,4.01 4,7.22 -0.03,1.25 -0.03,2.5 0.01,3.75 0.02,0.65 -0.22,0.84 -0.84,0.81 -0.92,-0.04 -1.85,-0.01 -2.78,-0.01zm6.69 5.9c0,-11.94 8.67,-20.42 20.87,-20.42 11.92,0.01 20.64,8.73 20.62,20.63 -0.02,12.03 -8.79,20.49 -21.25,20.48 -11.71,-0.01 -20.24,-8.73 -20.24,-20.69z"/>
   <path class="fil0" d="M172.88 0l87.24 0c13.17,0 23.96,10.43 23.96,23.71l0 86.55c0,13.28 -10.79,24.14 -23.96,24.14l-111.2 0 0 -110.69c0,-13.28 10.79,-23.71 23.96,-23.71z"/>
   <path class="fil2" d="M221.61 65.24c4.42,2.02 7.38,5.1 8.78,9.5 2.79,8.78 -0.01,20.49 -13.49,24.2 -2.44,0.67 -4.94,1.01 -7.47,1.02 -7.47,0.03 -14.95,-0.01 -22.42,0.03 -1.07,0.01 -1.4,-0.24 -1.4,-1.36 0.04,-19.17 0.02,-38.35 0.03,-57.52 0,-3.74 2.84,-6.9 6.45,-6.92 6.46,-0.04 12.92,-0.32 19.36,0.13 5.22,0.37 9.96,2.13 13.51,6.21 5.73,6.59 4.98,17.33 -1.55,23.13 -0.54,0.48 -1.07,0.95 -1.8,1.58zm24.23 19.39c4.46,0 8.08,3.61 8.08,8.07 0,4.46 -3.62,8.08 -8.08,8.08 -4.46,0 -8.07,-3.62 -8.07,-8.08 0,-4.46 3.61,-8.07 8.07,-8.07zm-47.44 -3.35c0,-2.03 -0.02,-4.07 0.01,-6.1 0.03,-2.8 1.44,-4.18 4.23,-4.18 2.43,-0.01 4.85,-0.03 7.27,0 4.95,0.06 8.29,3.58 8.3,8.7 0.01,5.48 -3.13,8.98 -8.23,9.05 -3.48,0.06 -6.97,-0.02 -10.46,0.03 -0.87,0.02 -1.17,-0.18 -1.14,-1.11 0.07,-2.12 0.02,-4.26 0.02,-6.39zm0 -27.04c0,-1.55 0,-3.1 0,-4.65 0.02,-3.17 1.36,-4.55 4.49,-4.57 1.75,-0.01 3.49,-0.01 5.24,0 4.75,0.02 7.56,2.7 7.74,7.37 0.17,4.73 -2.64,8.09 -7.19,8.32 -3.15,0.16 -6.31,0.02 -9.46,0.06 -0.8,0.01 -0.83,-0.4 -0.82,-1 0.02,-1.84 0,-3.68 0,-5.53z"/>
   <path class="fil3" d="M221.61 64.8c4.42,2.01 7.38,5.09 8.78,9.49 2.79,8.78 -0.01,20.49 -13.49,24.2 -2.44,0.67 -4.94,1.01 -7.47,1.02 -7.47,0.03 -14.95,-0.01 -22.42,0.03 -1.07,0.01 -1.4,-0.24 -1.4,-1.36 0.04,-19.17 0.02,-38.34 0.03,-57.52 0,-3.74 2.84,-6.9 6.45,-6.92 6.46,-0.04 12.92,-0.32 19.36,0.13 5.22,0.37 9.96,2.13 13.51,6.21 5.73,6.59 4.98,17.33 -1.55,23.13 -0.54,0.48 -1.07,0.95 -1.8,1.59zm-23.21 16.03c0,-2.03 -0.02,-4.07 0.01,-6.1 0.03,-2.8 1.44,-4.18 4.23,-4.18 2.43,-0.01 4.85,-0.03 7.27,0 4.95,0.06 8.29,3.58 8.3,8.7 0.01,5.48 -3.13,8.98 -8.23,9.06 -3.48,0.05 -6.97,-0.02 -10.46,0.03 -0.87,0.01 -1.17,-0.19 -1.14,-1.11 0.07,-2.13 0.02,-4.27 0.02,-6.4zm0 -27.03c0,-1.56 0,-3.11 0,-4.66 0.02,-3.17 1.36,-4.55 4.49,-4.57 1.75,-0.01 3.49,0 5.24,0 4.75,0.02 7.56,2.7 7.74,7.37 0.17,4.73 -2.64,8.09 -7.19,8.32 -3.15,0.16 -6.31,0.02 -9.46,0.06 -0.8,0.01 -0.83,-0.4 -0.82,-1 0.02,-1.84 0,-3.68 0,-5.52z"/>
   <circle class="fil1" cx="245.84" cy="92.25" r="8.07"/>
  </g>
 </g>
</svg>
